<?xml version="1.0" encoding="utf-8"?>
<!-- Generator: Adobe Illustrator 23.0.1, SVG Export Plug-In . SVG Version: 6.00 Build 0)  -->
<svg version="1.1" id="Layer_1" xmlns="http://www.w3.org/2000/svg" xmlns:xlink="http://www.w3.org/1999/xlink" x="0px" y="0px"
	 viewBox="0 0 787.27 790.14" style="enable-background:new 0 0 787.27 790.14;" xml:space="preserve">
<style type="text/css">
	.st0{stroke:#FFFFFF;stroke-miterlimit:10;}
	.st1{fill:#961B20;}
	.st2{fill:#FFFFFF;}
	.st3{fill:none;stroke:#000000;stroke-miterlimit:10;}
	.st4{fill:url(#SVGID_1_);}
	.st5{fill:url(#SVGID_2_);}
	.st6{fill:url(#SVGID_3_);}
	.st7{fill:url(#SVGID_4_);}
	.st8{fill:url(#SVGID_5_);}
	.st9{fill:url(#SVGID_6_);}
	.st10{fill:url(#SVGID_7_);}
	.st11{fill:url(#SVGID_8_);}
	.st12{fill:url(#SVGID_9_);}
	.st13{fill:url(#SVGID_10_);}
	.st14{fill:url(#SVGID_11_);}
	.st15{fill:url(#SVGID_12_);}
	.st16{fill:#C02026;}
	.st17{fill:url(#SVGID_13_);}
	.st18{fill:url(#SVGID_14_);}
	.st19{fill:#BE1E2D;}
	.st20{fill:#6A0006;}
	.st21{fill:none;stroke:#000000;stroke-width:5;stroke-miterlimit:10;}
	.st22{fill:none;stroke:#000000;stroke-width:2;stroke-miterlimit:10;}
	.st23{fill:none;}
	.st24{fill:none;stroke:#000000;stroke-width:8;stroke-miterlimit:10;}
</style>
<g>
	<linearGradient id="SVGID_1_" gradientUnits="userSpaceOnUse" x1="0" y1="393.633" x2="787.2661" y2="393.633">
		<stop  offset="0" style="stop-color:#BE1E2D"/>
		<stop  offset="0.9883" style="stop-color:#6A0006"/>
	</linearGradient>
	<circle class="st4" cx="393.63" cy="393.63" r="393.63"/>
	<path class="st2" d="M622.07,506.51c-18.17-75.1-54.41-141.13-100.18-202.2c-36.93-49.29-74.44-98.07-102.4-153.26
		c-6.2-12.24-12.19-24.6-19.41-39.22c-1.17-3.85-1.88-5.95-1.88-5.95C215.47,354.02,179.75,467.56,179.75,467.56
		C91.02,707.4,300.09,780.65,300.09,780.65c-84.13-282.71,80.15-342.41,111.74-441.53c0.51-0.99,1.06-2.07,1.6-3.25
		c30.84,32.1,40.03,69.1,36.05,110.17c-3.89,40.03-17.77,77.06-37.63,111.46c-30.97,53.64-20.25,105.15-17.41,118.64
		c1.1,3.57,23.28-2.48,115.64-211.4c2.22-5.01,56.06,108.5,24.26,216.55c-9.56,32.46-24.42,66.41-37.38,99.36
		c7.8-4.11,15.42-10.58,22.34-15.01C608.08,708.71,646.94,609.28,622.07,506.51z"/>
</g>
</svg>
