
  <svg viewBox="0 0 100 108" fill="none" xmlns="http://www.w3.org/2000/svg">
    <path
      d="M57.7975 68.0999C49.3288 67.064 45.6077 62.3039 38.1656 52.7993C47.6764 45.3634 52.4334 41.6423 60.9052 42.6751C69.3864 43.7141 77.3355 48.9843 80.5371 57.9756C75.27 65.9342 66.2755 69.1264 57.7975 68.0999ZM39.1483 95.6841C31.1709 95.0988 27.4655 90.8238 20.064 82.2644C28.6234 74.866 32.9016 71.1637 40.8821 71.7365C48.8656 72.3154 56.5582 76.8815 59.9663 85.153C55.4002 92.8455 47.135 96.2568 39.1483 95.6841V95.6841ZM19.6822 46.5276C23.8696 51.632 23.4095 56.2825 22.4926 65.5806C13.1977 64.6605 8.54713 64.2035 4.35661 59.0992C0.166088 53.9854 -1.46756 46.7842 1.54624 40.0462C8.74742 38.4063 15.4917 41.4201 19.6822 46.5276V46.5276ZM85.7666 29.4776C78.1461 32.6698 72.7475 30.4603 61.9411 26.0444C66.3569 15.238 68.5695 9.83317 76.1776 6.6316C83.795 3.43629 93.0085 4.04656 100 10.0616C99.3929 19.2751 93.3747 26.276 85.7666 29.4776V29.4776ZM45.8612 18.3582C48.5965 27.337 45.4732 33.1987 39.2296 44.9221C27.5093 38.6755 21.6445 35.5521 18.9061 26.5702C16.1645 17.582 17.9203 7.22935 25.5345 0C35.8872 1.7557 43.1197 9.36686 45.8612 18.3582V18.3582Z"
      fill="#77B255"
    />
    <path
      d="M18.9061 26.5702C21.6038 35.4207 27.3623 38.5972 38.7415 44.6624V44.6467C38.5224 36.757 30.1883 10.6093 25.3875 0.162735C17.9109 7.38583 16.1834 17.6478 18.9061 26.5702ZM1.40546 40.4312C-1.37987 47.0596 0.244386 54.0824 4.35667 59.0992C8.55032 64.2067 13.2009 64.6604 22.4926 65.5805C19.3724 59.5185 7.12322 45.5887 1.40546 40.4312Z"
      fill="#A6D388"
    />
    <path
      d="M60.9051 42.6751C52.884 41.6987 48.1458 45.0223 39.5989 51.6852C45.0632 52.0138 67.0955 54.0167 80.4713 58.0602C80.4901 58.0289 80.5183 58.007 80.5371 57.9757C77.3355 48.9843 69.3863 43.7141 60.9051 42.6751ZM59.9538 85.128C56.5394 76.8753 48.8594 72.3154 40.882 71.7365C33.0581 71.1763 28.7705 74.744 20.546 81.8513C29.2055 80.8968 45.2854 79.1286 59.9538 85.128Z"
      fill="#5C913B"
    />
    <path
      d="M62.5043 26.2729C72.9164 30.526 78.2868 32.6072 85.7634 29.4776C93.3339 26.2917 99.3208 19.3409 99.978 10.1993C87.7037 12.581 67.4584 23.1871 62.5043 26.2729V26.2729Z"
      fill="#A6D388"
    />
    <path
      d="M7.20451 107.404C5.37683 107.12 2.93888 104.804 3.22055 102.973C4.9293 91.8253 12.1649 64.892 60.4858 25.4999C61.9191 24.3263 63.5403 23.4375 64.7545 24.8364C65.9782 26.2354 64.5918 27.8095 63.196 29.0269C21.61 65.2363 14.6435 93.9159 13.0506 104.341C12.7658 106.171 9.03532 107.68 7.20451 107.404V107.404Z"
      fill="#A06253"
    />
  </svg>

