
  <svg viewBox="0 0 36 35" fill="none" xmlns="http://www.w3.org/2000/svg">
    <path d="M1 17L9 10L25 11L26 27L19 35C19 35 19.001 29.001 13 23C6.999 16.999 1 17 1 17Z" fill="#A0041E" />
    <path
      d="M0.973 35C0.973 35 0.937 27.021 3.958 24C6.979 20.979 15 21.187 15 21.187C15 21.187 14.999 29 11.999 32C8.999 35 0.973 35 0.973 35V35Z"
      fill="#FFAC33"
    />
    <path
      d="M8.999 31C11.2081 31 12.999 29.2091 12.999 27C12.999 24.7909 11.2081 23 8.999 23C6.78986 23 4.999 24.7909 4.999 27C4.999 29.2091 6.78986 31 8.999 31Z"
      fill="#FFCC4D"
    />
    <path
      d="M35.999 0C35.999 0 25.999 0 13.999 10C7.999 15 7.999 24 9.999 26C11.999 28 20.999 28 25.999 22C35.999 10 35.999 0 35.999 0Z"
      fill="#55ACEE"
    />
    <path
      d="M26.999 5C25.376 5 23.986 5.971 23.358 7.36C23.86 7.133 24.413 7 24.999 7C27.208 7 28.999 8.791 28.999 11C28.999 11.586 28.866 12.139 28.64 12.64C30.029 12.013 30.999 10.623 30.999 9C30.999 6.791 29.208 5 26.999 5V5Z"
      fill="black"
    />
    <path d="M8 28C8 28 8 24 9 23C10 22 22.001 12.001 23 13C23.999 13.999 13.999 26 12.999 27C11.999 28 8 28 8 28Z" fill="#A0041E" />
  </svg>

