

  <svg
    id="Layer_1"
    data-name="Layer 1"
    xmlns="http://www.w3.org/2000/svg"
    viewBox="0 0 832.17 1075.03"
    xmlnsXlink="http://www.w3.org/1999/xlink"
    fill="url(#linear-gradient)"
  >
    <defs>
      <linearGradient id="linear-gradient" y1="537.51" x2="831.48" y2="537.51" gradientUnits="userSpaceOnUse">
        <stop offset="0" stopColor="#2ab640" />
        <stop offset="1" stopColor="#54cf61" />
      </linearGradient>
      <linearGradient id="linear-gradient-2" x1="566.27" y1="782.67" x2="807.8" y2="782.67" xlinkHref="#linear-gradient" />
      <linearGradient id="linear-gradient-3" x1="523.1" y1="642.25" x2="585.19" y2="642.25" xlinkHref="#linear-gradient" />
      <linearGradient id="linear-gradient-4" x1="657.84" y1="593.7" x2="832.17" y2="593.7" xlinkHref="#linear-gradient" />
      <linearGradient id="linear-gradient-5" x1="30.33" y1="293.98" x2="271.47" y2="293.98" xlinkHref="#linear-gradient" />
      <linearGradient id="linear-gradient-6" x1="252.58" y1="434.18" x2="314.57" y2="434.18" xlinkHref="#linear-gradient" />
      <linearGradient id="linear-gradient-7" x1="5.99" y1="482.65" x2="180.05" y2="482.65" xlinkHref="#linear-gradient" />
    </defs>
    <title>logo zaat</title>
    <path
      className="cls-1"
      d="M635.79,698.17C590.47,730.88,596.7,737.6,545.7,771c-83.61,52.42-176.17,86.43-258.46,78.89L828.33,187.36V0H1.84V195.58h499C351.06,216.84,192.48,358.87,202.06,378.34c45.24-32.65,39-39.36,89.95-72.73,80.55-50.5,169.44-84,249.39-79.48L0,887.49v187.35l831.48.19V881.1l-492.54-.16C488.25,858.47,645.33,717.57,635.79,698.17ZM264.61,880.85l.36.06h-.36Z"
    />
    <path
      className="cls-2"
      d="M580.3,799.75c-22.68,1.81-17.52,8.29,13,16.32,35.06,9.23,90.45.61,138.09-21.49,20.4-9.47,45.46-18.12,55.69-19.22,31.56-3.39,27.64-8.59-15.85-21-61.74-17.68-134.2-8-187.31,25-23.54,14.64-5,15.15,52.88,1.45,27.74-6.56,51.45-10.95,52.69-9.74C692.4,773.87,599.77,798.2,580.3,799.75Z"
    />
    <path
      className="cls-3"
      d="M525.89,626.78c-5.34,32-3.22,59.32,8.12,105,4.37,17.59,6,11.46,8.77-32.15,5.3-84.53,8.92-90.17,8.7-13.53-.21,74,5.75,75.81,25.12,7.44,15.59-55,8.75-152.57-10.68-152.24C555.83,541.42,531.45,593.52,525.89,626.78Z"
    />
    <path
      className="cls-4"
      d="M792.59,505.86c-42.33,20.15-74.11,52.85-98.34,101.2-10.35,20.66-23.6,42.51-29.43,48.54s-8.55,12.95-6.05,15.37,19.77-10.6,39.49-30l34.94-34.42-37,43.41-37,43.41,38.62-19.87c56.65-29.12,88.61-64.16,104.51-114.56,7-22.25,17.21-45.07,22.65-50.71C842.18,490.3,827.5,489.24,792.59,505.86ZM757,576.7c-7.35,7.42-10.81,8.95-7.68,3.41s9.13-11.61,13.36-13.48S764.32,569.28,757,576.7Z"
    />
    <path
      className="cls-5"
      d="M257.46,276.93c22.65-1.81,17.49-8.27-13-16.3-35-9.21-90.3-.6-137.86,21.47-20.37,9.45-45.39,18.08-55.6,19.18-31.52,3.38-27.61,8.57,15.82,21,61.64,17.65,134,8,187-25,23.51-14.62,5.06-15.13-52.79-1.45-27.69,6.55-51.37,10.93-52.6,9.73C145.54,302.77,238,278.47,257.46,276.93Z"
    />
    <path
      className="cls-6"
      d="M311.78,449.62c5.33-31.9,3.22-59.22-8.1-104.79-4.37-17.56-6-11.44-8.76,32.1-5.29,84.4-8.91,90-8.69,13.51.21-73.92-5.73-75.69-25.07-7.43-15.57,54.92-8.74,152.33,10.66,152C281.89,534.84,306.23,482.84,311.78,449.62Z"
    />
    <path
      className="cls-7"
      d="M45.51,570.34c42.27-20.11,74-52.75,98.18-101,10.34-20.64,23.56-42.45,29.39-48.47s8.54-12.93,6-15.34-19.74,10.58-39.43,30l-34.88,34.36,37-43.34,37-43.34L140.17,403C83.61,432.09,51.7,467.06,35.82,517.38c-7,22.22-17.18,45-22.6,50.63C-4,585.88,10.65,586.94,45.51,570.34Zm35.56-70.72c7.34-7.4,10.79-8.93,7.67-3.4s-9.12,11.59-13.34,13.46S73.74,507,81.07,499.62Z"
    />
  </svg>
